<?xml version="1.0" encoding="utf-8"?>
<svg xmlns="http://www.w3.org/2000/svg" viewBox="0 0 500 500" xmlns:bx="https://boxy-svg.com">
  <rect x="145.985" y="171.294" width="166" height="162.134" style="fill: rgb(31, 70, 39); stroke: rgb(23, 55, 29); stroke-width: 20px;"/>
  <path style="fill: rgb(31, 70, 39); stroke: rgb(23, 55, 29); stroke-width: 19.3789px;" transform="matrix(1.011578, 0, 0, 1.033209, -84.828561, 12.638672)" d="M 228.172 153.556 A 82.05 82.05 0 1 1 392.272 153.556 L 310.222 153.556 Z" bx:shape="pie 310.222 153.556 0 82.05 270 90 1@f9bafb8b"/>
  <rect x="155" y="160.187" width="147" height="30.376" style="stroke: rgb(0, 0, 0); fill: rgb(31, 70, 39); stroke-width: 0px;"/>
  <ellipse style="stroke: rgb(0, 0, 0); fill: rgb(4, 4, 4);" cx="203.616" cy="190.137" rx="9.967" ry="11.249"/>
  <ellipse style="stroke: rgb(0, 0, 0); fill: rgb(4, 4, 4);" cx="253.927" cy="190.137" rx="9.967" ry="11.249"/>
  <path style="stroke: rgb(0, 0, 0); fill: rgb(3, 3, 3);" transform="matrix(1.477494, 0, 0, 1.004421, -553.36884, -63.537285)" d="M 500.004407728 300.897299345 A 31.134 31.134 0 0 1 559.388193578 300.379064897 L 553.594357281 302.261596427 A 25.042 25.042 0 0 0 505.830216301 302.67842777 Z" bx:shape="pie 529.778 310 25.042 31.134 287 72 1@c870d4e0"/>
  <path style="fill: rgb(197, 65, 21); stroke-miterlimit: 4.03; stroke: rgb(95, 44, 27); stroke-width: 12px;" d="M 285.728 283.002 L 344.812 167.781 L 374.959 183.717 L 300.198 294.033 L 285.728 283.002 Z"/>
  <path style="stroke-width: 19.3789px; fill: rgb(66, 67, 66); stroke: rgb(43, 45, 43); transform-box: fill-box; transform-origin: 50% 50%;" transform="matrix(-1.301766, 0, 0, -1.09072, -346.309725, -142.67183)" d="M 636.445 234.444 A 60.889 60.889 0 1 1 514.678 233.275 L 575.556 234.444 Z" bx:shape="pie 575.556 234.444 0 60.889 90 271.1 1@d0276134"/>
  <path d="M 443.304 203.853 L 458.492 268.402 L 428.116 268.402 L 443.304 203.853 Z" bx:shape="triangle 428.116 203.853 30.376 64.549 0.5 0 1@3aaea965" style="fill: rgb(216, 216, 216); stroke-width: 7px; stroke: rgb(41, 43, 41); transform-box: fill-box; transform-origin: 50% 50%;" transform="matrix(0.866026, 0.5, -0.5, 0.866026, -149.034008, -142.389371)"/>
  <path d="M 443.304 203.853 L 458.492 268.402 L 428.116 268.402 L 443.304 203.853 Z" bx:shape="triangle 428.116 203.853 30.376 64.549 0.5 0 1@3aaea965" style="fill: rgb(216, 216, 216); stroke-width: 7; stroke: rgb(41, 43, 41); transform-origin: 443.304px 236.127px;" transform="matrix(0.866026, -0.5, 0.5, 0.866026, -273.387958, -145.237582)"/>
</svg>