<?xml version="1.0" encoding="utf-8"?>
<svg xmlns="http://www.w3.org/2000/svg" viewBox="0 0 500 500" xmlns:bx="https://boxy-svg.com">
  <rect x="145.985" y="171.294" width="166" height="124.034" style="fill: rgb(31, 70, 39); stroke: rgb(23, 55, 29); stroke-width: 13px;"/>
  <path style="fill: rgb(31, 70, 39); stroke: rgb(23, 55, 29); stroke-width: 11.7372px;" transform="matrix(1.011578, 0, 0, 1.033209, -84.828561, 12.638672)" d="M 228.172 153.556 A 82.05 82.05 0 1 1 392.272 153.556 L 310.222 153.556 Z" bx:shape="pie 310.222 153.556 0 82.05 270 90 1@f9bafb8b"/>
  <rect x="152" y="160.187" width="153" height="30.376" style="stroke: rgb(0, 0, 0); fill: rgb(31, 70, 39); stroke-width: 0px;"/>
  <ellipse style="stroke: rgb(0, 0, 0); fill: rgb(4, 4, 4);" cx="203.087" cy="194.244" rx="7.594" ry="9.825"/>
  <ellipse style="stroke: rgb(0, 0, 0); fill: rgb(4, 4, 4);" cx="248.48" cy="194.998" rx="7.594" ry="9.351"/>
  <path style="stroke: rgb(0, 0, 0); fill: rgb(15, 40, 20);" transform="matrix(1.477494, 0, 0, 0.50805, -555.212406, 78.570458)" d="M 499.324352599 303.526877418 A 31.134 31.134 0 0 1 559.388193578 300.379064897 L 554.238222543 302.052391922 A 25.719 25.719 0 0 0 504.621021857 304.652719224 Z" bx:shape="pie 529.778 310 25.719 31.134 282 72 1@a971479e"/>
  <path style="fill: rgb(197, 65, 21); stroke-miterlimit: 4.03; stroke: rgb(95, 44, 27); stroke-width: 12px;" d="M 284.499 263.952 L 343.583 148.731 L 373.73 164.667 L 298.969 274.983 L 284.499 263.952 Z"/>
  <path style="fill: rgb(66, 67, 66); stroke: rgb(43, 45, 43); transform-box: fill-box; transform-origin: 50% 50%; stroke-width: 15.8831px;" transform="matrix(-1.301766, 0, 0, -1.09072, -346.309725, -142.67183)" d="M 636.445 234.444 A 60.889 60.889 0 1 1 514.678 233.275 L 575.556 234.444 Z" bx:shape="pie 575.556 234.444 0 60.889 90 271.1 1@d0276134"/>
  <path d="M 443.304 203.853 L 458.492 268.402 L 428.116 268.402 L 443.304 203.853 Z" bx:shape="triangle 428.116 203.853 30.376 64.549 0.5 0 1@3aaea965" style="fill: rgb(216, 216, 216); stroke-width: 7px; stroke: rgb(41, 43, 41); transform-box: fill-box; transform-origin: 50% 50%;" transform="matrix(0.866026, 0.5, -0.5, 0.866026, -149.034008, -142.389371)"/>
  <path d="M 443.304 203.853 L 458.492 268.402 L 428.116 268.402 L 443.304 203.853 Z" bx:shape="triangle 428.116 203.853 30.376 64.549 0.5 0 1@3aaea965" style="fill: rgb(216, 216, 216); stroke-width: 7; stroke: rgb(41, 43, 41); transform-origin: 443.304px 236.127px;" transform="matrix(0.866026, -0.5, 0.5, 0.866026, -273.387958, -145.237582)"/>
  <rect x="636.609" y="295.968" width="41.084" height="10.765" style="stroke: rgb(0, 0, 0); fill: rgb(34, 10, 3); transform-box: fill-box; transform-origin: 50.2834% 68.0193%;" transform="matrix(0.965926, -0.258819, 0.258819, 0.965926, -403.370017, -135.734132)"/>
  <rect x="631.069" y="300.96" width="40.727" height="10.948" style="stroke: rgb(0, 0, 0); stroke-width: 1; transform-origin: 651.43px 306.434px; fill: rgb(34, 10, 3);" transform="matrix(0.965926, 0.258819, -0.258819, 0.965926, -451.528004, -141.332587)"/>
  <path d="M 259.517 211.684 L 262.283 225.204 L 256.752 225.204 L 259.517 211.684 Z" bx:shape="triangle 256.752 211.684 5.531 13.52 0.5 0 1@37ca4efb" style="fill: rgb(216, 216, 216); stroke: rgb(0, 0, 0); stroke-width: 2px;"/>
  <path d="M 194.994 213.258 L 197.759 226.778 L 192.228 226.778 L 194.994 213.258 Z" bx:shape="triangle 192.228 213.258 5.531 13.52 0.5 0 1@fa263c35" style="fill: rgb(216, 216, 216); stroke: rgb(0, 0, 0); stroke-width: 2;"/>
</svg>